<svg width="20" height="14" viewBox="0 0 20 14" fill="none" xmlns="http://www.w3.org/2000/svg">
<path d="M0.00390625 0.34375H19.9961V13.6562H0.00390625V0.34375Z" fill="white"/>
<path d="M0.00390625 0.34375H19.9961V1.36749H0.00390625V0.34375ZM0.00390625 2.39123H19.9961V3.41497H0.00390625V2.39123ZM0.00390625 4.43871H19.9961V5.46244H0.00390625V4.43871ZM0.00390625 6.48618H19.9961V7.50992H0.00390625V6.48618ZM0.00390625 8.53755H19.9961V9.56129H0.00390625V8.53755ZM0.00390625 10.585H19.9961V11.6088H0.00390625V10.585ZM0.00390625 12.6325H19.9961V13.6562H0.00390625V12.6325Z" fill="#D80027"/>
<path d="M0.00390625 0.34375H9.99998V7.50992H0.00390625V0.34375Z" fill="#2E52B2"/>
<path d="M1.86674 5.75046L1.71085 5.25221L1.53938 5.75046H1.02496L1.44195 6.05019L1.28607 6.54843L1.71085 6.24092L2.12395 6.54843L1.96417 6.05019L2.38895 5.75046H1.86674ZM4.06081 5.75046L3.90103 5.25221L3.73735 5.75046H3.22293L3.63992 6.05019L3.48404 6.54843L3.90103 6.24092L4.32191 6.54843L4.16603 6.05019L4.58302 5.75046H4.06081ZM6.26267 5.75046L6.0951 5.25221L5.93921 5.75046H5.4131L5.84179 6.05019L5.67811 6.54843L6.0951 6.24092L6.52378 6.54843L6.3601 6.05019L6.77709 5.75046H6.26267ZM8.45285 5.75046L8.29696 5.25221L8.13328 5.75046H7.61497L8.03586 6.05019L7.87997 6.54843L8.29696 6.24092L8.71785 6.54843L8.55027 6.05019L8.97896 5.75046H8.45285ZM3.90103 3.2748L3.73735 3.77305H3.22293L3.63992 4.08056L3.48404 4.57102L3.90103 4.2674L4.32191 4.57102L4.16603 4.08056L4.58302 3.77305H4.06081L3.90103 3.2748ZM1.71085 3.2748L1.53938 3.77305H1.02496L1.44195 4.08056L1.28607 4.57102L1.71085 4.2674L2.12395 4.57102L1.96417 4.08056L2.38895 3.77305H1.86674L1.71085 3.2748ZM6.0951 3.2748L5.93921 3.77305H5.4131L5.84179 4.08056L5.67811 4.57102L6.0951 4.2674L6.52378 4.57102L6.3601 4.08056L6.77709 3.77305H6.26267L6.0951 3.2748ZM8.29696 3.2748L8.13328 3.77305H7.61497L8.03586 4.08056L7.87997 4.57102L8.29696 4.2674L8.71785 4.57102L8.55027 4.08056L8.97896 3.77305H8.45285L8.29696 3.2748ZM1.71085 1.30518L1.53938 1.79564H1.02496L1.44195 2.10315L1.28607 2.5975L1.71085 2.28999L2.12395 2.5975L1.96417 2.10315L2.38895 1.79564H1.86674L1.71085 1.30518ZM3.90103 1.30518L3.73735 1.79564H3.22293L3.63992 2.10315L3.48404 2.5975L3.90103 2.28999L4.32191 2.5975L4.16603 2.10315L4.58302 1.79564H4.06081L3.90103 1.30518ZM6.0951 1.30518L5.93921 1.79564H5.4131L5.84179 2.10315L5.67811 2.5975L6.0951 2.28999L6.52378 2.5975L6.3601 2.10315L6.77709 1.79564H6.26267L6.0951 1.30518ZM8.29696 1.30518L8.13328 1.79564H7.61497L8.03586 2.10315L7.87997 2.5975L8.29696 2.28999L8.71785 2.5975L8.55027 2.10315L8.97896 1.79564H8.45285L8.29696 1.30518Z" fill="white"/>
</svg>
