<svg width="25" height="25" viewBox="0 0 25 25" fill="none" xmlns="http://www.w3.org/2000/svg">
<g id="Frame">
<path id="Vector" opacity="0.3" d="M8.5 14.2969H6.5V19.7969H12.5V11.7969L8.5 18.7969V14.2969ZM6.5 14.2969L10.5 6.79688V11.7969H12.5V5.79688H6.5V14.2969Z" fill="#8C7CF0"/>
<path id="Vector_2" d="M12.5 3.79688H6.5C5.4 3.79688 4.5 4.69687 4.5 5.79688V21.7969H14.5V14.2969H16V19.2969C16 20.6769 17.12 21.7969 18.5 21.7969C19.88 21.7969 21 20.6769 21 19.2969V9.79688C21 9.10687 20.72 8.47687 20.27 8.02688L20.28 8.01687L16.56 4.29688L15.5 5.35687L17.61 7.46688C16.67 7.82688 16 8.72687 16 9.79688C16 11.1769 17.12 12.2969 18.5 12.2969C18.86 12.2969 19.19 12.2169 19.5 12.0869V19.2969C19.5 19.8469 19.05 20.2969 18.5 20.2969C17.95 20.2969 17.5 19.8469 17.5 19.2969V14.7969C17.5 13.6969 16.6 12.7969 15.5 12.7969H14.5V5.79688C14.5 4.69687 13.6 3.79688 12.5 3.79688ZM12.5 11.7969V19.7969H6.5V5.79688H12.5V11.7969ZM18.5 10.7969C17.95 10.7969 17.5 10.3469 17.5 9.79688C17.5 9.24687 17.95 8.79688 18.5 8.79688C19.05 8.79688 19.5 9.24687 19.5 9.79688C19.5 10.3469 19.05 10.7969 18.5 10.7969ZM10.5 6.79688L6.5 14.2969H8.5V18.7969L12.5 11.7969H10.5V6.79688Z" fill="#8C7CF0"/>
</g>
</svg>
