<svg width="25" height="25" viewBox="0 0 25 25" fill="none" xmlns="http://www.w3.org/2000/svg">
<g id="Frame">
<path id="Vector" opacity="0.3" d="M5.5 5.79688H9.5V19.7969H5.5V5.79688ZM15.5 15.7969H19.5V19.7969H15.5V15.7969ZM15.5 5.79688H19.5V9.79688H15.5V5.79688Z" fill="#8C7CF0"/>
<path id="Vector_2" d="M3.5 5.79688V19.7969C3.5 20.8969 4.39 21.7969 5.5 21.7969H11.5V3.79688H5.5C4.39 3.79688 3.5 4.69687 3.5 5.79688ZM9.5 19.7969H5.5V5.79688H9.5V19.7969ZM19.5 3.79688H13.5V11.7969H21.5V5.79688C21.5 4.69687 20.6 3.79688 19.5 3.79688ZM19.5 9.79688H15.5V5.79688H19.5V9.79688ZM13.5 21.7969H19.5C20.6 21.7969 21.5 20.8969 21.5 19.7969V13.7969H13.5V21.7969ZM15.5 15.7969H19.5V19.7969H15.5V15.7969Z" fill="#8C7CF0"/>
</g>
</svg>
