<svg width="25" height="25" viewBox="0 0 25 25" fill="none" xmlns="http://www.w3.org/2000/svg">
<g id="Frame">
<path id="Vector" opacity="0.3" d="M3.5 17.7969H21.5V5.79688H3.5V17.7969ZM9.5 7.79688L16.5 11.7969L9.5 15.7969V7.79688Z" fill="#8C7CF0"/>
<path id="Vector_2" d="M9.5 7.79688V15.7969L16.5 11.7969L9.5 7.79688ZM21.5 3.79688H3.5C2.4 3.79688 1.5 4.69687 1.5 5.79688V17.7969C1.5 18.8969 2.4 19.7969 3.5 19.7969H8.5V21.7969H16.5V19.7969H21.5C22.6 19.7969 23.5 18.8969 23.5 17.7969V5.79688C23.5 4.69687 22.6 3.79688 21.5 3.79688ZM21.5 17.7969H3.5V5.79688H21.5V17.7969Z" fill="#8C7CF0"/>
</g>
</svg>
